<?xml version="1.0" standalone="no"?><!DOCTYPE svg PUBLIC "-//W3C//DTD SVG 1.1//EN" "http://www.w3.org/Graphics/SVG/1.1/DTD/svg11.dtd"><svg t="1782375489745" class="icon" viewBox="0 0 1024 1024" version="1.1" xmlns="http://www.w3.org/2000/svg" p-id="3863" xmlns:xlink="http://www.w3.org/1999/xlink" width="200" height="200"><path d="M24.6784 56.6272m102.4 0l789.0944 0q102.4 0 102.4 102.4l0 730.6752q0 102.4-102.4 102.4l-789.0944 0q-102.4 0-102.4-102.4l0-730.6752q0-102.4 102.4-102.4Z" fill="#7F8388" fill-opacity=".2" p-id="3864"></path><path d="M663.5008 399.0528v54.2208h49.664v41.8816h-48.7936v90.3168c0 23.1936 9.3696 34.048 27.4432 34.048 6.8096-0.256 13.5168-1.6896 19.8656-4.1984l8.704 38.2464c-13.7216 4.864-28.16 7.3728-42.752 7.5264-47.872-0.6144-66.56-31.0272-66.56-76.4928V494.2336h-28.3136V455.68l30.1568-2.4064 5.9904-54.2208h44.544z m220.5184 64.8704c31.3344 19.1488 49.152 54.272 46.336 90.8288a97.5872 97.5872 0 1 1-194.56 0 97.5872 97.5872 0 0 1 148.224-90.8288z m-459.6736-10.6496v120.4736c0 30.1056 8.704 42.1376 28.0064 42.1376a48.4864 48.4864 0 0 0 41.2672-25.2928V453.2736h52.992V655.36h-43.008l-4.2496-30.1056c-15.0016 20.992-39.0144 33.5872-64.768 33.9968-43.008 1.2288-63.232-29.184-63.232-79.4624V453.2736h52.992z m-162.9184-65.024L347.2384 655.36H291.2256l-18.6368-68.352H185.8048L167.168 655.36h-54.272l85.5552-267.1616h62.976zM833.024 491.52c-27.4432 0-43.1104 24.9856-43.1104 63.232 0 38.2464 15.6672 62.3616 43.1104 62.3616 27.392 0 43.008-23.808 43.008-62.3616 0-38.2464-15.616-63.232-43.008-63.232zM229.4784 427.9808c-6.656 30.1056-14.7456 60.2112-22.528 87.3472l-8.192 30.1056h62.0544l-7.8336-30.1056c-5.632-18.4832-10.7008-38.2976-15.7696-58.0096l-7.68-29.3376z" fill="#7F8388" p-id="3865"></path></svg>