<?xml version="1.0" standalone="no"?><!DOCTYPE svg PUBLIC "-//W3C//DTD SVG 1.1//EN" "http://www.w3.org/Graphics/SVG/1.1/DTD/svg11.dtd"><svg t="1782376016482" class="icon" viewBox="0 0 1024 1024" version="1.1" xmlns="http://www.w3.org/2000/svg" p-id="27012" xmlns:xlink="http://www.w3.org/1999/xlink" width="200" height="200"><path d="M518.485333 425.106286l111.152762-207.555048h-134.363428l-149.869715 340.845714h147.358477l-93.135239 288.304762 295.936-421.595428h-177.078857zM874.154667 781.409524a590.262857 590.262857 0 0 0-118.150096-46.250667c15.164952-63.268571 23.552-128 24.990477-193.048381h180.321523a456.216381 456.216381 0 0 1-87.161904 239.299048z m-210.041905 155.794286a484.839619 484.839619 0 0 0 74.922667-144.286477c32.670476 8.850286 64.438857 20.72381 94.890666 35.498667a453.241905 453.241905 0 0 1-169.569524 108.78781h-0.243809z m-48.225524-37.010286a167.107048 167.107048 0 0 1-74.922667 58.026666v-194.56c24.990476 0 48.469333 2.755048 76.434286 5.510096l14.726095 2.243047c15.750095 1.999238 31.719619 4.242286 47.201524 7.509334a419.791238 419.791238 0 0 1-63.439238 121.270857z m-134.607238-119.02781v176.786286a147.090286 147.090286 0 0 1-56.685714-38.009905 383.951238 383.951238 0 0 1-80.700953-140.775619 595.797333 595.797333 0 0 1 49.980953-7.996952l20.48-63.024762c-29.110857 2.706286-58.051048 7.070476-86.674286 12.995048a862.695619 862.695619 0 0 1-24.966095-178.785524h17.724952l26.721524-60.269715h-45.714286a855.430095 855.430095 0 0 1 24.990476-179.029333c30.768762 6.339048 61.878857 10.922667 93.135239 13.750857l24.990476-58.270476c-13.994667 0-27.964952-2.243048-41.691429-3.754667l-16.993524-2.486857a614.814476 614.814476 0 0 1-42.959238-6.997333 437.784381 437.784381 0 0 1 63.926857-121.782857 164.864 164.864 0 0 1 74.922667-58.026667v121.539048h60.220952V65.26781a149.845333 149.845333 0 0 1 57.417143 38.765714 400.213333 400.213333 0 0 1 80.700953 141.019428c-9.752381 1.999238-32.49981 5.510095-34.230857 5.753905l-34.718477 65.26781c28.842667-2.925714 57.539048-7.363048 85.918477-13.238857a831.878095 831.878095 0 0 1 21.967238 138.020571v3.242667c0 12.507429 1.755429 25.014857 1.999238 37.790476h-28.476953l-43.203047 60.220952h71.192381a834.901333 834.901333 0 0 1-24.990477 179.053714 1215.146667 1215.146667 0 0 0-160.329142-17.749333l-55.442286 78.506667 1.487238-0.731429zM189.318095 828.440381a555.52 555.52 0 0 1 94.915048-35.498667 487.838476 487.838476 0 0 0 74.922667 144.286476 453.241905 453.241905 0 0 1-169.593905-108.787809h-0.24381z m-39.472762-47.006476a454.460952 454.460952 0 0 1-87.917714-239.299048h179.346286c1.438476 65.048381 9.801143 129.77981 24.966095 193.048381a584.265143 584.265143 0 0 0-116.394667 46.250667z m0-538.624a580.998095 580.998095 0 0 0 118.150096 46.006857 916.041143 916.041143 0 0 0-24.990477 193.048381H61.19619A452.193524 452.193524 0 0 1 149.845333 242.834286z m210.041905-156.038095a484.839619 484.839619 0 0 0-74.922667 144.286476A532.821333 532.821333 0 0 1 190.073905 195.535238a452.266667 452.266667 0 0 1 169.081905-108.787809h0.731428z m474.550857 109.031619a582.217143 582.217143 0 0 1-94.671238 35.254857 508.854857 508.854857 0 0 0-71.192381-139.776l-3.218286-4.022857a453.729524 453.729524 0 0 1 169.569524 109.031619l-0.487619-0.487619z m39.716572 47.006476a454.704762 454.704762 0 0 1 87.917714 239.055238h-180.589714a915.529143 915.529143 0 0 0-24.966096-193.048381 602.453333 602.453333 0 0 0 117.638096-46.006857zM1024 502.881524A511.609905 511.609905 0 0 0 701.074286 36.498286 527.920762 527.920762 0 0 0 528.481524 0h-34.206476a519.972571 519.972571 0 0 0-191.829334 44.763429A512.902095 512.902095 0 0 0 0 503.125333v18.261334a525.702095 525.702095 0 0 0 24.966095 148.284952A513.024 513.024 0 0 0 374.637714 1005.226667a537.6 537.6 0 0 0 120.636953 18.748952h34.450285a567.02781 567.02781 0 0 0 92.40381-11.751619C853.528381 961.438476 1019.806476 758.247619 1024 521.118476v-18.236952z" p-id="27013"></path></svg>