<?xml version="1.0" standalone="no"?><!DOCTYPE svg PUBLIC "-//W3C//DTD SVG 1.1//EN" "http://www.w3.org/Graphics/SVG/1.1/DTD/svg11.dtd"><svg t="1782377455730" class="icon" viewBox="0 0 1024 1024" version="1.1" xmlns="http://www.w3.org/2000/svg" p-id="18558" xmlns:xlink="http://www.w3.org/1999/xlink" width="200" height="200"><path d="M948.514858 697.91418c2.944025-66.671152-39.634187-133.883043-127.754665-184.752592-170.533151-98.454606-447.031175-98.454606-617.584354 0-87.599765 50.589165-130.177978 117.320399-127.794719 183.611031v69.775396c-2.403286 66.270604 40.194954 133.021866 127.814747 183.591003 170.533151 98.474633 447.031175 98.474633 617.564326 0 88.120477-50.869548 130.69869-118.161549 127.754665-184.752591z" fill="#313233" p-id="18559"></path><path d="M75.321038 691.445335a436.697047 252.124702 0 1 0 873.394093 0 436.697047 252.124702 0 1 0-873.394093 0Z" fill="#4C4C4C" p-id="18560"></path><path d="M854.58644 633.305848l-189.438999-552.755721L377.734494 78.687581 185.471635 633.305848c-22.71105 62.946059 8.251281 131.059182 92.886993 179.925992 133.482496 77.065363 349.898377 77.065363 483.380873 0 84.635713-48.86681 115.537962-116.979934 92.846939-179.925992z" fill="#F93232" p-id="18561"></path><path d="M735.243275 284.649169c-9.873499 20.908586-29.019675 40.675611-57.458556 57.098064-87.139136 50.308782-228.312146 50.308782-315.551418 0-27.597731-15.921768-46.42347-34.987835-56.51727-55.195463l-25.915431 74.662077c8.371445 27.497594 30.922277 53.853628 67.712576 75.10268 95.270252 54.995189 249.721416 54.995189 344.971641 0 37.671504-21.749736 60.422609-48.826755 68.293369-77.045336z" fill="#FFFFFF" p-id="18562"></path><path d="M824.805724 546.226794l-24.934089-72.819558c-13.4584 25.835322-37.831723 50.188617-73.180051 70.596519-114.156073 65.890084-299.229102 65.890084-413.385175 0-34.967808-20.1876-59.180911-44.220458-72.719421-69.735341l-25.194446 72.579229c10.434266 35.087972 39.093448 68.733972 86.117739 95.851047 120.725054 69.695287 316.432623 69.695287 437.177704 0 47.124428-27.257266 75.823665-61.143595 86.117739-96.471896z" fill="#FFFFFF" p-id="18563"></path><path d="M377.313919 83.013495a144.097008 83.013495 0 1 0 288.194015 0 144.097008 83.013495 0 1 0-288.194015 0Z" fill="#FF4848" p-id="18564"></path></svg>