<?xml version="1.0" standalone="no"?><!DOCTYPE svg PUBLIC "-//W3C//DTD SVG 1.1//EN" "http://www.w3.org/Graphics/SVG/1.1/DTD/svg11.dtd"><svg t="1782379706239" class="icon" viewBox="0 0 1024 1024" version="1.1" xmlns="http://www.w3.org/2000/svg" p-id="1284" xmlns:xlink="http://www.w3.org/1999/xlink" width="200" height="200"><path d="M102.4 204.8m153.6 0l512 0q153.6 0 153.6 153.6l0 307.2q0 153.6-153.6 153.6l-512 0q-153.6 0-153.6-153.6l0-307.2q0-153.6 153.6-153.6Z" fill="#FFD43B" p-id="1285"></path><path d="M908.4416 395.6224a19.2 19.2 0 0 1 26.3168 27.9552l-327.68 307.2a19.2 19.2 0 0 1-26.2656 0L348.16 512.6656l-232.6016 218.112a19.2 19.2 0 0 1-26.3168-27.9552l245.76-230.4 2.9696-2.304a19.2512 19.2512 0 0 1 23.3472 2.304l232.6016 218.0096 314.5216-294.8096zM256 288a70.4 70.4 0 1 1 0 140.8 70.4 70.4 0 0 1 0-140.8z m0 38.4a32 32 0 1 0 0 64 32 32 0 0 0 0-64z" fill="#183153" p-id="1286"></path></svg>