<?xml version="1.0" standalone="no"?><!DOCTYPE svg PUBLIC "-//W3C//DTD SVG 1.1//EN" "http://www.w3.org/Graphics/SVG/1.1/DTD/svg11.dtd"><svg t="1782379537651" class="icon" viewBox="0 0 1024 1024" version="1.1" xmlns="http://www.w3.org/2000/svg" p-id="2035" xmlns:xlink="http://www.w3.org/1999/xlink" width="200" height="200"><path d="M400.12 808.4C364.58 805.7 343 768 358.67 736l8.44-17.24a1346 1346 0 0 1 87.95-153.2l17.74-26.7c19.95-30 64-30 83.95 0l17.74 26.7a1346 1346 0 0 1 88 153.2l8.39 17.24c15.68 32-5.91 69.73-41.45 72.43z" fill="#FE6565" p-id="2036"></path><path d="M137.4 205m84.24 0l586.28 0q84.24 0 84.24 84.24l0 339.33q0 84.24-84.24 84.24l-586.28 0q-84.24 0-84.24-84.24l0-339.33q0-84.24 84.24-84.24Z" fill="#34BCF7" p-id="2037"></path><path d="M179.55 250m41.17 0l588.11 0q41.17 0 41.17 41.17l0 339.66q0 41.17-41.17 41.17l-588.11 0q-41.17 0-41.17-41.17l0-339.66q0-41.17 41.17-41.17Z" fill="#64D7FF" p-id="2038"></path><path d="M356.35 557.2h-63.1a39.12 39.12 0 0 1-39.07-39.08V378.28a20 20 0 0 1 40 0V517.2h62.17a20 20 0 0 1 0 40zM766.13 557.34H684a20 20 0 0 1-20-20V378.42a20 20 0 0 1 19.93-20l82.17-0.28h0.07a20 20 0 0 1 0.06 40l-62.23 0.21v119h62.16a20 20 0 0 1 0 40zM427.21 557.2a20 20 0 0 1-20-20V378.28a20 20 0 0 1 40 0V537.2a20 20 0 0 1-20 20zM554.27 557.47a20 20 0 0 1-18.78-13.14L477.3 384.85a20 20 0 0 1 37.58-13.7l39.27 107.64 38.52-106.93a20 20 0 1 1 37.63 13.56l-57.21 158.83a20 20 0 0 1-18.77 13.22z" fill="#FFFFFF" p-id="2039"></path><path d="M761.12 477.74h-63.45a20 20 0 1 1 0-40h63.45a20 20 0 1 1 0 40z" fill="#FFFFFF" p-id="2040"></path></svg>