<?xml version="1.0" standalone="no"?><!DOCTYPE svg PUBLIC "-//W3C//DTD SVG 1.1//EN" "http://www.w3.org/Graphics/SVG/1.1/DTD/svg11.dtd"><svg t="1782379766084" class="icon" viewBox="0 0 1024 1024" version="1.1" xmlns="http://www.w3.org/2000/svg" p-id="1408" xmlns:xlink="http://www.w3.org/1999/xlink" width="200" height="200"><path d="M72.155922 792.17991c18.934533-37.357321 57.315342-60.897551 99.790105-60.897551h680.61969c42.474763 0 80.855572 23.54023 99.790105 60.897551l63.968016 125.889056c17.911044 36.333833 2.558721 79.832084-34.286856 97.743128 0 0-0.511744 0-0.511745 0.511744-10.234883 5.117441-21.493253 7.676162-33.263368 7.676162H74.714643c-40.93953 0-74.714643-32.23988-74.714643-72.667666 0-11.770115 2.558721-23.028486 8.187906-33.775113l63.968016-125.377311z" fill="#F98130" p-id="1409"></path><path d="M770.686657 110.536732l-10.234883-10.746627c-142.776612-137.147426-369.47926-132.029985-506.626687 10.746627-142.776612 148.917541-142.776612 383.808096 0 532.213893l206.232884 211.350325 2.046977 2.046976c28.145927 27.634183 73.17941 27.634183 100.813593 0l1.535232-1.535232 205.209395-212.885558c141.753123-148.405797 142.264868-382.272864 1.023489-531.190404z" fill="#2B7AF9" opacity=".9" p-id="1410"></path><path d="M511.744128 478.48076c-75.226387 0-136.635682-61.409295-136.635682-136.635683s61.409295-136.635682 136.635682-136.635682 136.635682 61.409295 136.635682 136.635682-61.409295 136.635682-136.635682 136.635683z" fill="#FFFFFF" p-id="1411"></path></svg>