<?xml version="1.0" standalone="no"?><!DOCTYPE svg PUBLIC "-//W3C//DTD SVG 1.1//EN" "http://www.w3.org/Graphics/SVG/1.1/DTD/svg11.dtd"><svg t="1782379493283" class="icon" viewBox="0 0 1024 1024" version="1.1" xmlns="http://www.w3.org/2000/svg" p-id="1557" xmlns:xlink="http://www.w3.org/1999/xlink" width="200" height="200"><path d="M790 576.33a32.5 32.5 0 0 1-32.5-32.5v-57.68c0-67.73-26-131.38-73.1-179.23s-109.48-74-175.9-74-128.89 26.28-175.9 74-73.1 111.5-73.1 179.23v57.68a32.5 32.5 0 0 1-65 0v-57.68c0-84.91 32.6-164.76 91.8-224.85a312.72 312.72 0 0 1 99.81-68.3 311.06 311.06 0 0 1 244.78 0 312.72 312.72 0 0 1 99.81 68.3c59.2 60.09 91.8 139.94 91.8 224.85v57.68a32.5 32.5 0 0 1-32.5 32.5z" fill="#FF7735" p-id="1558"></path><path d="M262.33 495.87h3.87a49.43 49.43 0 0 1 49.43 49.43v150.63a49.43 49.43 0 0 1-49.43 49.43h-3.87a124.75 124.75 0 0 1-124.74-124.75 124.75 124.75 0 0 1 124.74-124.74z" fill="#FED54A" p-id="1559"></path><path d="M262.12 779.22m0-35.83l0-245.57q0-35.83 35.83-35.83l0 0q35.83 0 35.83 35.83l0 245.57q0 35.83-35.83 35.83l0 0q-35.83 0-35.83-35.83Z" fill="#FE6565" p-id="1560"></path><path d="M754.04 745.36h-3.87a49.43 49.43 0 0 1-49.43-49.43V545.3a49.43 49.43 0 0 1 49.43-49.43h3.87a124.75 124.75 0 0 1 124.74 124.75 124.75 124.75 0 0 1-124.74 124.74z" fill="#FED54A" p-id="1561"></path><path d="M754.25 462m0 35.83l0 245.57q0 35.83-35.83 35.83l0 0q-35.83 0-35.83-35.83l0-245.57q0-35.83 35.83-35.83l0 0q35.83 0 35.83 35.83Z" fill="#FE6565" p-id="1562"></path><path d="M547.8 706.09a20.27 20.27 0 0 1-2.57-0.16 20 20 0 0 1-16.44-13.59l-39.6-120.47-32 46.9a20 20 0 0 1-16.53 8.73H393.5a20 20 0 0 1 0-40h36.61L479 515.82a20 20 0 0 1 35.52 5l39.21 119.28 28.12-43.46a20 20 0 0 1 16.79-9.14h27.86a20 20 0 0 1 0 40h-17L564.58 697a20 20 0 0 1-16.78 9.09z" fill="#7F3030" p-id="1563"></path></svg>