<?xml version="1.0" standalone="no"?><!DOCTYPE svg PUBLIC "-//W3C//DTD SVG 1.1//EN" "http://www.w3.org/Graphics/SVG/1.1/DTD/svg11.dtd"><svg t="1782379518154" class="icon" viewBox="0 0 1024 1024" version="1.1" xmlns="http://www.w3.org/2000/svg" p-id="1876" xmlns:xlink="http://www.w3.org/1999/xlink" width="200" height="200"><path d="M143.079235 248.347157m21.616254-21.616254l52.6441-52.6441q21.616254-21.616254 43.232509 0l56.002857 56.002857q21.616254 21.616254 0 43.232508l-52.6441 52.6441q-21.616254 21.616254-43.232509 0l-56.002857-56.002857q-21.616254-21.616254 0-43.232508Z" fill="#7F3030" p-id="1877"></path><path d="M239.412 313.579l64.785-64.785 139.42 139.42-64.785 64.785z" fill="#7F3030" p-id="1878"></path><path d="M666.29 385a209.31 209.31 0 0 0-320.7-30c-81.66 81.68-81.65 214.1 0 295.77a210.16 210.16 0 0 0 30.29 25.1 45.88 45.88 0 0 1 20.16 37.91C396 760.44 410.89 803 442 834.13c77.51 77.5 183.79 96.88 331.71-51 147.32-147.32 128.54-254.19 51-331.7-31-30.95-73.23-45.89-119.57-45.95A47.2 47.2 0 0 1 666.29 385z" fill="#FF7735" p-id="1879"></path><path d="M482.83 492.92m-98.58 0a98.58 98.58 0 1 0 197.16 0 98.58 98.58 0 1 0-197.16 0Z" fill="#FED54A" p-id="1880"></path><path d="M571.957683 719.120368m17.324116-17.324116l103.131524-103.131524q17.324116-17.324116 34.648232 0l5.536646 5.536646q17.324116 17.324116 0 34.648232l-103.131524 103.131524q-17.324116 17.324116-34.648232 0l-5.536646-5.536646q-17.324116-17.324116 0-34.648232Z" fill="#FFFFFF" p-id="1881"></path><path d="M482.83 492.92m-68.14 0a68.14 68.14 0 1 0 136.28 0 68.14 68.14 0 1 0-136.28 0Z" fill="#FFFFFF" p-id="1882"></path></svg>