<?xml version="1.0" standalone="no"?><!DOCTYPE svg PUBLIC "-//W3C//DTD SVG 1.1//EN" "http://www.w3.org/Graphics/SVG/1.1/DTD/svg11.dtd"><svg t="1782379440741" class="icon" viewBox="0 0 1024 1024" version="1.1" xmlns="http://www.w3.org/2000/svg" p-id="1396" xmlns:xlink="http://www.w3.org/1999/xlink" width="200" height="200"><path d="M614.76 668.23m-187.05 0a187.05 187.05 0 1 0 374.1 0 187.05 187.05 0 1 0-374.1 0Z" fill="#FE6565" p-id="1397"></path><path d="M632.13 262.98m-87.84 0a87.84 87.84 0 1 0 175.68 0 87.84 87.84 0 1 0-175.68 0Z" fill="#FE6565" p-id="1398"></path><path d="M548.143 289.113l88.044-38.466 152.605 349.3-88.044 38.465z" fill="#FE6565" p-id="1399"></path><path d="M686.14 193.62s54.28 49.12 127.44 11.22c0 0 8-5.72 15.14 0.28 3.83 3.23 6.42 9.95 1.83 20.7 0 0-31.34 88.83-163.71 117.72z" fill="#FE6565" p-id="1400"></path><path d="M528.64 639.18m-53.67 0a53.67 53.67 0 1 0 107.34 0 53.67 53.67 0 1 0-107.34 0Z" fill="#FFFFFF" p-id="1401"></path><path d="M385.87 319.58l14.7 37.42a24.05 24.05 0 0 0 13.6 13.59l37.41 14.7c20.34 8 20.34 36.79 0 44.79l-37.41 14.69a24.07 24.07 0 0 0-13.6 13.6l-14.7 37.41c-8 20.35-36.78 20.35-44.78 0l-14.7-37.41a24.05 24.05 0 0 0-13.59-13.6l-37.41-14.69c-20.35-8-20.35-36.79 0-44.79l37.41-14.7A24 24 0 0 0 326.39 357l14.7-37.41c8-20.36 36.79-20.36 44.78-0.01zM248.52 546.65l9.3 23.66a15.22 15.22 0 0 0 8.6 8.6l23.66 9.29c12.86 5.06 12.86 23.27 0 28.32l-23.66 9.3a15.22 15.22 0 0 0-8.6 8.6l-9.3 23.66c-5.05 12.86-23.26 12.86-28.32 0l-9.29-23.66a15.22 15.22 0 0 0-8.6-8.6l-23.66-9.3c-12.87-5-12.87-23.26 0-28.32l23.66-9.29a15.22 15.22 0 0 0 8.6-8.6l9.29-23.66c5.06-12.87 23.27-12.87 28.32 0z" fill="#FED54A" p-id="1402"></path></svg>