<?xml version="1.0" standalone="no"?><!DOCTYPE svg PUBLIC "-//W3C//DTD SVG 1.1//EN" "http://www.w3.org/Graphics/SVG/1.1/DTD/svg11.dtd"><svg t="1782377115503" class="icon" viewBox="0 0 1024 1024" version="1.1" xmlns="http://www.w3.org/2000/svg" p-id="7580" xmlns:xlink="http://www.w3.org/1999/xlink" width="200" height="200"><path d="M512 42.666667C253.866667 42.666667 42.666667 253.866667 42.666667 512s211.2 469.333333 469.333333 469.333333 469.333333-211.2 469.333333-469.333333S770.133333 42.666667 512 42.666667z m0 725.333333c-23.466667 0-42.666667-19.2-42.666667-42.666667s19.2-42.666667 42.666667-42.666666 42.666667 19.2 42.666667 42.666666-19.2 42.666667-42.666667 42.666667z m72.533333-221.866667c-19.2 10.666667-29.866667 29.866667-29.866666 51.2 0 23.466667-19.2 42.666667-42.666667 42.666667s-42.666667-19.2-42.666667-42.666667c0-53.333333 27.733333-102.4 74.666667-125.866666 23.466667-12.8 42.666667-40.533333 34.133333-76.8-6.4-25.6-25.6-46.933333-51.2-51.2-21.333333-4.266667-42.666667 0-59.733333 12.8-17.066667 12.8-25.6 32-25.6 53.333333 0 23.466667-19.2 42.666667-42.666667 42.666667s-42.666667-19.2-42.666666-42.666667c0-46.933333 21.333333-89.6 57.6-119.466667 36.266667-29.866667 83.2-40.533333 130.133333-32 57.6 12.8 106.666667 59.733333 117.333333 117.333334 14.933333 70.4-14.933333 138.666667-76.8 170.666666z" fill="#80B8F8" p-id="7581"></path></svg>