<?xml version="1.0" standalone="no"?><!DOCTYPE svg PUBLIC "-//W3C//DTD SVG 1.1//EN" "http://www.w3.org/Graphics/SVG/1.1/DTD/svg11.dtd"><svg t="1782376811402" class="icon" viewBox="0 0 1024 1024" version="1.1" xmlns="http://www.w3.org/2000/svg" p-id="56024" xmlns:xlink="http://www.w3.org/1999/xlink" width="200" height="200"><path d="M383.36 110.752v748.704l167.04 53.792V285.312c0-29.44 12.96-49.12 33.888-42.272 27.136 7.712 32.416 34.72 32.416 64.224v250.72c104.16 50.912 186.112-0.096 186.112-134.528 0-138.112-48.032-199.456-189.344-248.608-55.776-19.104-159.072-50.592-230.016-64.096z m198.656 692.992l268.64-97.056c30.496-11.008 35.232-26.656 10.496-34.912-24.992-8.192-69.856-5.92-100.576 5.248l-179.424 63.968v-101.76l10.24-3.616s51.232-17.92 124.288-26.24c72.352-7.68 161.504 1.248 231.968 28.192 78.848 25.632 87.072 62.816 67.232 88.416s-69.216 44.192-69.216 44.192L581.12 902.752v-98.016zM77.152 793.6c-81.056-23.264-94.464-71.168-57.696-99.04 34.176-24.96 92.128-44.832 92.128-44.832l239.616-85.888v98.688l-171.744 62.816c-30.08 11.552-35.2 26.976-10.208 35.232 24.992 8.32 69.856 6.4 99.968-5.12l82.688-30.112v88.48c-5.152 1.248-10.912 1.888-16.672 3.104-82.688 14.112-170.464 8.352-257.568-20.448z" fill="#003791" p-id="56025"></path></svg>