<?xml version="1.0" standalone="no"?><!DOCTYPE svg PUBLIC "-//W3C//DTD SVG 1.1//EN" "http://www.w3.org/Graphics/SVG/1.1/DTD/svg11.dtd"><svg t="1782379647098" class="icon" viewBox="0 0 1024 1024" version="1.1" xmlns="http://www.w3.org/2000/svg" p-id="1351" xmlns:xlink="http://www.w3.org/1999/xlink" width="200" height="200"><path d="M301.792 308.218l330.854-100.395c30.592-9.283 62.96 8.014 72.242 38.606l53.056 174.848L371.667 538.49l-69.875-230.272z" fill="#D2C5FF" p-id="1352"></path><path d="M752.3 789.95H278.69c-43.37 0-77.09-37.74-72.23-80.84l39.9-353.54c4.15-36.76 35.24-64.53 72.23-64.53h393.8c36.99 0 68.08 27.78 72.23 64.53l39.9 353.54c4.86 43.1-28.86 80.84-72.23 80.84z" fill="#936CFF" p-id="1353"></path><path d="M512 514c-69.47 0-125.98-56.52-125.98-125.98 0-11.05 8.95-20 20-20s20 8.95 20 20c0 47.41 38.57 85.98 85.98 85.98s85.98-38.57 85.98-85.98c0-11.05 8.95-20 20-20s20 8.95 20 20C637.98 457.49 581.46 514 512 514z" fill="#D2C5FF" p-id="1354"></path></svg>