<?xml version="1.0" standalone="no"?><!DOCTYPE svg PUBLIC "-//W3C//DTD SVG 1.1//EN" "http://www.w3.org/Graphics/SVG/1.1/DTD/svg11.dtd"><svg t="1782379634003" class="icon" viewBox="0 0 1024 1024" version="1.1" xmlns="http://www.w3.org/2000/svg" p-id="1195" xmlns:xlink="http://www.w3.org/1999/xlink" width="200" height="200"><path d="M485.61 273.21m69.48 0l223.39 0q69.48 0 69.48 69.48l0 401.4q0 69.48-69.48 69.48l-223.39 0q-69.48 0-69.48-69.48l0-401.4q0-69.48 69.48-69.48Z" fill="#D2C5FF" p-id="1196"></path><path d="M798.14 461.2V251.72c0-28.01-22.71-50.72-50.72-50.72H538.21c-18.72 0-36.66 7.47-49.85 20.75L194.55 517.52c-19.69 19.83-19.64 51.85 0.12 71.61l217.44 217.44c19.85 19.85 52.06 19.8 71.85-0.12l293.76-295.73a70.23 70.23 0 0 0 20.41-49.52z" fill="#936CFF" p-id="1197"></path><path d="M656.37 344.04m-64.99 0a64.99 64.99 0 1 0 129.98 0 64.99 64.99 0 1 0-129.98 0Z" fill="#D2C5FF" p-id="1198"></path></svg>