<?xml version="1.0" standalone="no"?><!DOCTYPE svg PUBLIC "-//W3C//DTD SVG 1.1//EN" "http://www.w3.org/Graphics/SVG/1.1/DTD/svg11.dtd"><svg t="1782379754491" class="icon" viewBox="0 0 1024 1024" version="1.1" xmlns="http://www.w3.org/2000/svg" p-id="1252" xmlns:xlink="http://www.w3.org/1999/xlink" width="200" height="200"><path d="M591.36 556.544l355.84 205.312c34.304 19.456 76.8-5.12 76.8-44.544V306.688c0-39.424-42.496-64-76.8-44.544l-355.84 205.312c-34.304 19.968-34.304 69.12 0 89.088z" fill="#F98130" p-id="1253"></path><path d="M657.92 890.88H102.4c-56.32 0-102.4-46.08-102.4-102.4V235.52c0-56.32 46.08-102.4 102.4-102.4h555.52c56.32 0 102.4 46.08 102.4 102.4v552.96c0 56.32-46.08 102.4-102.4 102.4z" fill="#2B7AF9" opacity=".9" p-id="1254"></path><path d="M258.56 690.688c-6.656 0-12.8-1.536-18.432-4.608-11.264-6.656-18.432-18.432-18.432-31.232V369.664c0-12.8 7.168-24.576 18.432-31.232 11.264-6.656 25.6-6.656 37.376 0L531.456 481.28c11.264 6.656 18.432 18.432 18.432 31.232s-7.168 24.576-18.432 31.232l-254.464 142.848c-5.632 2.56-12.288 4.096-18.432 4.096z m36.864-258.56v160.256l143.36-80.384-143.36-79.872z" fill="#FFFFFF" p-id="1255"></path></svg>