<?xml version="1.0" standalone="no"?><!DOCTYPE svg PUBLIC "-//W3C//DTD SVG 1.1//EN" "http://www.w3.org/Graphics/SVG/1.1/DTD/svg11.dtd"><svg t="1782379507106" class="icon" viewBox="0 0 1024 1024" version="1.1" xmlns="http://www.w3.org/2000/svg" p-id="1716" xmlns:xlink="http://www.w3.org/1999/xlink" width="200" height="200"><path d="M418.061343 418.064063m33.941125-33.941126l213.114913-213.114912q33.941125-33.941125 67.882251 0l0 0q33.941125 33.941125 0 67.882251l-213.114913 213.114912q-33.941125 33.941125-67.882251 0l0 0q-33.941125-33.941125 0-67.882251Z" fill="#FF7735" p-id="1717"></path><path d="M495.666633 419.552299m-33.941125-33.941126l-93.338095-93.338095q-33.941125-33.941125 0-67.882251l0 0q33.941125-33.941125 67.882251 0l93.338095 93.338095q33.941125 33.941125 0 67.882251l0 0q-33.941125 33.941125-67.882251 0Z" fill="#FED54A" p-id="1718"></path><path d="M175 289m112.18 0l463.08 0q112.18 0 112.18 112.18l0 312.64q0 112.18-112.18 112.18l-463.08 0q-112.18 0-112.18-112.18l0-312.64q0-112.18 112.18-112.18Z" fill="#18D375" p-id="1719"></path><path d="M241.04 356.71m48 0l459.35 0q48 0 48 48l0 262.27q0 48-48 48l-459.35 0q-48 0-48-48l0-262.27q0-48 48-48Z" fill="#95ED7C" p-id="1720"></path><path d="M581.85 496.61l-7.21-6.11a262.94 262.94 0 0 0-84.81-48.19 43.23 43.23 0 0 0-56.89 35.32l-2.34 18a263 263 0 0 0 0 67.68l2.28 17.58A43.24 43.24 0 0 0 490.46 616l5.1-1.85a263 263 0 0 0 79.51-45.86l6.63-5.56a43.25 43.25 0 0 0 0.15-66.12z" fill="#FFFFFF" p-id="1721"></path></svg>