<?xml version="1.0" standalone="no"?><!DOCTYPE svg PUBLIC "-//W3C//DTD SVG 1.1//EN" "http://www.w3.org/Graphics/SVG/1.1/DTD/svg11.dtd"><svg t="1782376770827" class="icon" viewBox="0 0 1024 1024" version="1.1" xmlns="http://www.w3.org/2000/svg" p-id="54085" xmlns:xlink="http://www.w3.org/1999/xlink" width="200" height="200"><path d="M216.674283 494.397262A1250.792235 1250.792235 0 0 1 394.7445 282.279693a606.145283 606.145283 0 0 0-212.11757-154.057873l-7.526257-1.843165a512.297466 512.297466 0 0 0-71.678638 694.156411 624.628132 624.628132 0 0 1 113.252248-326.137804z" fill="#21CE99" p-id="54086"></path><path d="M1023.980544 512.009728a511.273486 511.273486 0 0 0-175.100673-385.579874l-7.321461 2.047961a608.142045 608.142045 0 0 0-212.322365 154.057873 1251.099429 1251.099429 0 0 1 178.070216 212.11757 620.53221 620.53221 0 0 1 113.14985 326.189002A509.276724 509.276724 0 0 0 1023.980544 512.009728z" fill="#21CE99" p-id="54087"></path><path d="M386.757452 111.786932a598.363031 598.363031 0 0 1 124.772029 79.102497 619.508229 619.508229 0 0 1 125.232821-79.102497 260.807845 260.807845 0 0 1 165.270459-21.708387 511.990272 511.990272 0 0 0-580.084978 0 257.8895 257.8895 0 0 1 164.809669 21.708387z" fill="#21CE99" p-id="54088"></path><path d="M746.737812 596.334526a1164.061083 1164.061083 0 0 0-235.208331-214.626322 1175.529665 1175.529665 0 0 0-234.74754 214.626322 780.273175 780.273175 0 0 0-143.050082 246.164923l-2.969543 10.956591a511.990272 511.990272 0 0 0 762.507112 0l-3.225539-10.956591a782.269937 782.269937 0 0 0-143.306077-246.164923z" fill="#21CE99" p-id="54089"></path></svg>