<?xml version="1.0" standalone="no"?><!DOCTYPE svg PUBLIC "-//W3C//DTD SVG 1.1//EN" "http://www.w3.org/Graphics/SVG/1.1/DTD/svg11.dtd"><svg t="1782377206370" class="icon" viewBox="0 0 1024 1024" version="1.1" xmlns="http://www.w3.org/2000/svg" p-id="9438" xmlns:xlink="http://www.w3.org/1999/xlink" width="200" height="200"><path d="M856.576 526.336c-4.096-18.944-13.312-35.328-28.16-48.128-14.336-12.8-31.232-20.48-49.664-23.04-59.392-6.656-149.504-9.728-269.824-9.728-120.32 0-209.92 3.072-269.312 9.728-18.944 2.048-35.84 9.728-50.176 23.04s-23.552 29.184-28.16 48.128c-8.192 37.376-12.8 94.208-12.8 169.984 0 77.312 4.096 133.632 12.8 169.984 4.096 18.944 13.312 35.328 28.16 48.128 14.336 12.8 31.232 20.48 49.664 22.528 59.392 6.656 149.504 10.24 269.824 10.24 120.32 0 209.92-3.584 269.824-10.24 18.944-2.048 35.328-9.216 49.664-22.528 14.336-12.8 23.552-29.184 28.16-48.128 8.192-37.376 12.8-94.208 12.8-169.984-0.512-76.8-4.608-133.632-12.8-169.984z m-502.272 49.152H302.592v276.48h-48.64v-276.48h-51.2v-45.568h151.552v45.568z m131.584 276.48h-43.008v-26.112c-17.408 19.968-33.792 29.696-49.664 29.696-14.848 0-24.064-6.144-28.16-17.92-2.56-7.68-4.096-19.456-4.096-35.328v-189.952h43.008v176.64c0 10.24 0 15.872 0.512 16.896 1.024 6.656 4.608 10.24 10.24 10.24 8.704 0 17.92-6.656 27.648-20.48v-183.808h43.008v240.128z m164.864-71.68c0 23.552-1.536 39.936-4.608 48.64-5.632 17.92-16.896 26.624-34.304 26.624-15.36 0-30.72-8.704-45.056-26.624v23.552h-43.008v-322.048h43.008v105.472c13.824-17.408 29.184-26.112 45.056-26.112 17.408 0 29.184 9.216 34.304 27.136 3.072 8.192 4.608 24.576 4.608 48.128v95.232z m163.328 23.04c-1.024 8.704-4.608 17.408-10.24 26.112-11.776 17.408-29.184 25.6-52.736 25.6-22.528 0-39.936-8.192-52.736-24.576-9.216-11.776-14.336-30.72-14.336-56.32v-83.968c0-25.6 4.608-44.544 13.824-56.32 12.8-16.384 30.208-24.576 52.224-24.576 21.504 0 38.912 8.192 51.712 24.576 8.704 11.776 13.312 30.72 13.312 56.32v50.176h-87.04v42.496c0 22.528 7.68 33.28 22.528 33.28 10.752 0 17.408-5.632 19.456-17.408 0.512-3.072 1.024-13.312 1.024-29.696h44.032v6.144c0 15.872-0.512 25.6-1.024 28.16z" fill="#D54029" p-id="9439"></path><path d="M588.8 648.704c-7.68 0-14.848 3.584-22.016 10.752v146.432c7.168 7.168 14.336 10.752 22.016 10.752 12.8 0 18.944-10.752 18.944-32.768v-102.4c0-22.016-6.656-32.768-18.944-32.768zM772.096 681.472c0-22.016-7.168-33.28-22.016-33.28-14.336 0-22.016 11.264-22.016 33.28v22.528h43.52v-22.528z" fill="#D54029" p-id="9440"></path><path d="M326.144 270.336v131.584h48.64V270.336L433.664 76.8H384l-33.28 128-34.304-128h-51.2c9.216 27.136 19.456 57.344 31.744 90.624 14.848 44.544 24.576 79.36 29.184 102.912zM498.688 405.504c22.528 0 39.424-8.192 51.712-24.576 9.216-11.776 13.824-31.232 13.824-57.344V238.592c0-26.112-4.608-45.056-13.824-56.832-11.776-16.384-29.184-24.576-51.712-24.576-21.504 0-38.912 8.192-51.2 24.576-9.216 11.776-13.824 30.72-13.824 56.832v84.992c0 26.112 4.608 45.056 13.824 57.344 12.8 16.384 29.696 24.576 51.2 24.576z m-20.992-175.616c0-22.528 7.168-33.28 20.992-33.28 13.824 0 20.992 11.264 20.992 33.28v101.888c0 22.528-7.168 33.792-20.992 33.792-13.824 0-20.992-11.264-20.992-33.792V229.888zM632.32 405.504c16.384 0 32.768-10.24 50.176-30.208v26.624h44.032V159.744h-44.032v185.344c-9.728 13.824-18.944 20.992-27.648 20.992-5.632 0-9.216-3.584-10.24-10.752-0.512-0.512-0.512-6.144-0.512-16.896V159.744h-44.032v191.488c0 16.384 1.536 28.672 4.096 36.352 3.584 12.288 13.312 17.92 28.16 17.92z" fill="#666666" p-id="9441"></path></svg>